<?xml version="1.0" encoding="utf-8"?>
<!-- Generator: Adobe Illustrator 16.0.0, SVG Export Plug-In . SVG Version: 6.00 Build 0)  -->
<!DOCTYPE svg PUBLIC "-//W3C//DTD SVG 1.1//EN" "http://www.w3.org/Graphics/SVG/1.1/DTD/svg11.dtd">
<svg version="1.1" id="Warstwa_1" xmlns="http://www.w3.org/2000/svg" xmlns:xlink="http://www.w3.org/1999/xlink" x="0px" y="0px"
	 width="512px" height="512px" viewBox="0 0 512 512" enable-background="new 0 0 512 512" xml:space="preserve">
<path fill-rule="evenodd" clip-rule="evenodd" d="M344.856,229.928c4.348-9.244,10.279-16.575,20.825-18.766
	c10.565-2.194,19.048,1.307,26.04,9.205c2.722,3.075,2.271,5.625-1.216,7.485c-3.649,1.946-7.455,3.599-10.855,6.466
	c4.964-1.154,9.946-2.231,14.885-3.484c4.404-1.118,7.263,0.335,8.778,4.632c1.393,3.949,2.848,7.879,4.383,11.774
	c1.997,5.061-0.159,7.66-5.058,8.289c-7.577,0.971-15.186,1.678-22.781,2.499c0.014,0.708,0.026,1.416,0.039,2.123
	c8.729,0.217,17.464,0.719,26.185,0.534c4.619-0.1,6.594,1.037,7.299,5.962c2.188,15.269,2.417,15.236-15.482,16.263
	c3.813,1.46,7.54,3.234,11.461,4.3c4.563,1.242,6.166,3.775,4.966,8.247c-0.057,0.212-0.06,0.437-0.097,0.654
	c-2.197,12.559-3.174,13.072-14.744,7.814c-0.552-0.25-1.174-0.341-1.854-0.532c0,0.541-0.145,1.079,0.019,1.199
	c11.304,8.279,10.882,18.285,4.513,29.323c-2.421,4.197-4.675,8.518-6.655,12.938c-2.079,4.641-5.394,5.314-9.726,3.838
	c-1.253-0.426-2.524-0.793-3.776-1.218c-12.108-4.093-11.938-4.108-13.108-17.005c-0.563-6.18-1.909-12.29-2.901-18.432
	c-0.918,0.054-1.834,0.107-2.751,0.16c-0.304,5.074-0.525,10.157-0.934,15.224c-0.694,8.652-2.418,9.574-9.374,4.567
	c-16.62-11.961-14.978-8.174-7.845-26.625c2.591-6.698,4.952-13.485,7.417-20.232c-0.693-0.297-1.387-0.593-2.079-0.891
	c-3.776,8.061-7.664,16.07-11.296,24.193c-4.111,9.196-4.81,9.392-11.886,2.215c-8.018-8.125-8.064-8.148-2.821-18.56
	c4.246-8.436,8.622-16.808,11.695-26.059c-4.365,6.235-8.51,12.643-13.185,18.638c-2.526,3.243-5.956,5.784-8.979,8.64
	c-2.726-3.874-6.056-7.484-7.91-11.738c-0.891-2.038,0.457-5.604,1.757-7.939c3.909-7.017,8.291-13.766,11.544-21.441
	c-4.063,3.836-8.021,7.795-12.25,11.439c-1.346,1.158-3.743,2.395-5.063,1.924c-1.328-0.472-2.528-2.957-2.726-4.678
	c-0.981-8.59,0.634-16.751,5.498-23.997c5.228-7.788,14.113-10.639,24.723-8.199c2.338,0.538,4.62,1.313,7.242,2.071
	c-9.28-9.535-23.871-8.461-31.797,2.319c-8.271,11.25-10.615,24.627-12.304,37.991c-3.559,28.172-2.251,56.397,0.034,84.594
	c0.122,1.496,0.681,2.957,1.153,4.925c7.384,0,14.646,0.128,21.9-0.048c4.248-0.104,5.984,1.412,5.664,5.839
	c-2.001,27.73-3.925,55.47-5.688,83.217c-0.29,4.567-2.227,6.082-6.611,6.062c-23.411-0.112-46.826-0.219-70.235,0.062
	c-6.013,0.073-6.867-3.104-7.163-7.759c-1.369-21.583-2.831-43.161-4.269-64.74c-0.367-5.504-0.588-11.024-1.205-16.501
	c-0.535-4.752,1.424-6.324,5.984-6.19c7.456,0.216,14.922,0.059,22.022,0.059c0.579-0.992,0.98-1.359,0.976-1.721
	c-0.379-31.99-0.083-64.017-1.611-95.952c-0.486-10.157-4.518-20.757-9.26-29.952c-7.03-13.628-20.012-16.715-36.706-10.506
	c2.182,1.047,3.876,1.854,5.564,2.672c8.785,4.267,14.096,13.354,13.573,23.191c-0.243,4.572-2.337,5.193-6.093,3.104
	c-4.123-2.294-8.38-4.346-12.578-6.502c-0.442,0.671-0.884,1.343-1.326,2.015c5.044,3.959,9.982,8.062,15.159,11.837
	c6.102,4.454,5.996,19.025-0.675,22.734c-1.445,0.804-4.317-0.956-5.613-1.295c0.597,2.648,3.382,7.99,1.903,9.751
	c-4.524,5.386-10.388,9.847-16.325,13.768c-3.513,2.319-4.676-1.295-5.484-4.251c-2.14-7.819-4.407-15.604-6.624-23.403
	c-0.583,0.145-1.165,0.289-1.747,0.434c1.951,8.379,3.303,16.957,6.04,25.07c2.275,6.743-0.187,9.606-6.12,10.936
	c-4.94,1.106-9.981,1.761-14.953,2.742c-4.917,0.969-6.332-1.145-5.864-5.799c0.949-9.431,1.648-18.889,2.377-28.342
	c0.096-1.234-0.235-2.506-1.502-3.942c-0.629,2.984-1.141,6-1.914,8.946c-1.174,4.468-2.254,8.992-3.856,13.313
	c-7.066,19.067-9.412,20.38-29.495,17.603c-4.747-0.658-5.594-2.71-2.955-6.679c4.337-6.519,8.507-13.15,12.748-19.732
	c-0.589-0.416-1.18-0.835-1.769-1.251c-4.396,5.778-9.135,11.333-13.07,17.411c-2.778,4.29-5.827,5.602-10.463,3.821
	c-2.257-0.865-4.595-1.521-6.851-2.391c-7.341-2.831-12.206-6.983-11.564-16.093c0.555-7.874-0.323-15.87-0.853-23.793
	c-0.289-4.329,1.039-6.502,5.638-6.984c4.998-0.522,9.918-1.783,14.713-4.076c-4.05,0.489-8.111,0.909-12.149,1.482
	c-4.497,0.64-7.079-0.435-5.5-5.644c0.063-0.21,0.08-0.435,0.117-0.652c2.389-13.721,2.389-13.726,16.258-13.803
	c3.957-0.022,7.913-0.003,11.92-0.91c-6.328-0.498-12.65-1.263-18.986-1.41c-5.183-0.119-6.309-2.315-4.39-6.669
	c2.221-5.036,4.441-10.082,6.958-14.971c2.431-4.721,5.445-6.04,10.543-2.505c6.389,4.43,13.489,7.832,20.283,11.677
	c0.447-0.681,0.894-1.362,1.341-2.042c-6.334-4.992-12.431-10.333-19.092-14.843c-3.931-2.662-4.62-4.875-1.663-8.388
	c0.568-0.674,1.044-1.425,1.595-2.114c7.51-9.398,9.748-9.441,17.394-0.542c3.287,3.825,6.719,7.525,10.086,11.283
	c0.482-0.326,0.965-0.651,1.449-0.977c-2.725-4.309-5.43-8.629-8.178-12.922c-3.524-5.507-2.981-7.069,3.541-8.241
	c3.217-0.579,6.584-0.528,9.875-0.444c4.01,0.102,6.29,2.236,7.338,6.265c1.642,6.311,3.758,12.5,5.674,18.739
	c0.658-0.164,1.317-0.328,1.976-0.492c-0.895-4.041-1.686-8.108-2.709-12.116c-1.453-5.69-0.298-7.06,5.182-5.836
	c13.51,3.016,20.019,12.518,17.998,26.245c-0.157,1.066-0.203,2.148-0.325,3.487c6.232-2.226,11.991-4.824,18.022-6.333
	c17.046-4.262,31.099,2.369,39.228,17.966c8.421,16.159,9.871,33.78,10.154,51.461c0.403,25.155,0.102,50.321,0.102,76.017
	c3.082,0,5.766,0,8.79,0c0-4.287-0.012-8.406,0.002-12.524c0.146-44.593,0.355-89.185,0.417-133.778
	c0.028-21.031-0.831-42.045-8.998-61.814c-3.398-8.225-8.181-15.877-13.489-23.492c2.846,9.369,2.09,17.848-3.759,25.438
	c-1.498,1.942-3.871,3.21-5.842,4.789c-1.163-1.97-2.492-3.864-3.453-5.929c-1.643-3.529-3.055-7.167-4.563-10.758
	c-0.727,0.159-1.454,0.317-2.181,0.475c1.053,6.192,1.896,12.432,3.215,18.567c1.671,7.768-7.063,18.049-15.102,17.041
	c-1.665-0.208-3.078-2.422-4.903-3.961c1.014,7.667-3.849,9.287-9.707,9.194c-4.801-0.075-9.646-0.564-14.369-1.432
	c-3.857-0.708-4.752-2.957-2.716-6.787c3.883-7.307,7.264-14.878,10.853-22.341c-0.556-0.279-1.112-0.559-1.668-0.837
	c-4.191,7.845-8.732,15.528-12.449,23.591c-2.501,5.425-5.764,6.15-10.447,3.564c-4.241-2.342-8.489-4.714-12.504-7.415
	c-6.388-4.295-6.245-5.139-0.474-10.017c7.858-6.643,15.548-13.484,22.405-21.286c-8.737,6.313-17.345,12.816-26.252,18.88
	c-7.661,5.216-17.255,2.262-21.077-6.482c-0.513-1.171,1.252-4.25,2.754-5.224c5.167-3.353,10.69-6.157,16.06-9.204
	c0.271-0.154,0.366-0.618,1.347-2.386c-7.622,3.785-14.147,6.752-20.39,10.228c-3.772,2.1-6.403,1.67-9.216-1.513
	c-3.65-4.131-7.726-7.884-11.445-11.958c-1.109-1.213-1.64-2.954-2.436-4.453c1.664-0.842,3.247-2.116,5.006-2.442
	c4.983-0.924,10.053-1.366,15.061-2.174c4.93-0.795,9.825-1.806,14.734-2.723c-0.077-0.629-0.152-1.259-0.229-1.889
	c-9.659,0.924-19.345,1.631-28.964,2.861c-4.915,0.629-8.379,0.658-9.757-5.45c-0.782-3.463-3.151-6.91-5.656-9.56
	c-3.48-3.68-3.144-6.867-0.529-10.541c1.021-1.435,1.839-3.014,2.863-4.446c7.823-10.939,9.417-11.334,22.162-6.9
	c7.07,2.46,14.275,4.536,21.438,6.727c0.563,0.172,1.268-0.117,2.313-1.303c-8.928-3.547-17.896-6.999-26.754-10.713
	c-2.045-0.858-3.713-2.613-5.554-3.956c1.726-1.48,3.357-3.091,5.194-4.418c12.298-8.886,23.888-9.026,34.708,2.671
	c1.834,1.982,4.538,3.161,7.754,3.472c-5.479-4.464-10.948-8.938-16.436-13.389c-5.821-4.721-5.732-5.771,0.886-9.699
	c10.586-6.283,10.589-6.287,20.2,0.955c2.103,1.585,4.183,3.2,7.255,3.99c-1.848-2.112-3.561-4.365-5.572-6.306
	c-3.967-3.83-3.205-6.365,1.854-8.01c0.208-0.067,0.387-0.216,0.588-0.303c20.325-8.694,21.208-8.265,26.834,12.524
	c1.31,4.839,2.828,9.621,5.765,14.051c-1.647-7.66-2.855-15.45-5.08-22.938c-1.813-6.097,0.63-7.703,5.91-7.545
	c2.638,0.079,5.307,0.25,7.895,0.732c10.296,1.919,12.015,3.917,12.551,14.813c1.438-7.85,5.131-6.011,8.813-2.899
	c2.508,2.119,5.514,4.248,6.786,7.057c1.236,2.728,1.456,6.63,0.513,9.487c-2.103,6.373-5.208,12.416-7.904,18.592
	c0.646,0.386,1.293,0.772,1.939,1.158c2.64-3.729,5.365-7.401,7.899-11.201c3.193-4.791,4.943-4.741,7.717,0.415
	c5.652,10.507,3.596,21.783-5.535,29.996c-1.793,1.614-3.754,3.043-5.734,4.636c27.29,20.775,34.569,50.529,35.199,82.131
	c0.972,48.788,0.256,97.608,0.256,146.416c0.002,5.909,0,11.818,0,18.092c3.923,0,6.89,0,10.214,0
	c-0.733-12.719-1.719-25.188-2.113-37.677c-0.721-22.987-0.199-45.942,5.24-68.443c1.49-6.166,3.627-12.313,6.419-18
	c9.152-18.626,26.935-23.068,44.182-11.408C341.91,227.634,343.276,228.748,344.856,229.928z M106.869,99.361
	c0.825,0.469,1.173,0.819,1.556,0.863c38.583,4.439,77.201,8.602,115.73,13.465c8.672,1.095,21.582-7.676,23.645-13.997
	c1.163-3.562,0.917-7.584,1.305-11.399c-3.974,2.554-5.961,5.712-8.795,7.595c-2.231,1.481-6.234,2.682-8.109,1.625
	c-1.794-1.011-3.043-5.387-2.453-7.768c1.526-6.147,3.594-12.337,6.595-17.888c2.793-5.167,0.807-7.333-3.296-9.853
	c-2.005,8.009-3.547,15.577-5.945,22.863c-0.689,2.092-3.852,3.371-5.88,5.022c-1.087-2.157-3.128-4.329-3.095-6.468
	c0.135-8.811,0.565-17.65,1.57-26.401c0.535-4.661-1.201-6.516-5.313-7.172c-2.532-0.403-5.066-0.795-8.114-1.273
	c0.816,3.567,1.647,6.299,2.043,9.095c1.175,8.28,2.377,16.568,3.088,24.894c0.149,1.744-1.415,4.761-2.812,5.196
	c-1.414,0.441-4.374-1.119-5.296-2.632c-2.5-4.099-4.724-8.489-6.248-13.035c-2.646-7.898-4.683-16-7.145-24.606
	c-4.662,1.396-8.977,2.688-13.937,4.174c4.686,5.449,9.048,10.107,12.914,15.146c3.344,4.357,6.744,8.879,8.895,13.856
	c1.105,2.557,0.703,7.47-1.076,9.2c-3.331,3.236-6.308-0.177-8.605-2.995c-0.834-1.023-1.402-2.281-2.313-3.218
	c-7.188-7.407-14.39-14.803-21.673-22.116c-3.778-3.795-7.714-4.527-11.467-0.075c8.623,7.887,17.379,15.594,25.688,23.757
	c1.633,1.604,1.537,4.967,2.238,7.518c-2.64,0.114-5.858,1.261-7.821,0.163c-8.642-4.833-17.078-10.082-25.29-15.623
	c-9.152-6.176-9.011-6.385-18.489-0.245c8.683,4.236,17.745,8.265,26.342,13.116c2.289,1.292,3.155,5.107,4.674,7.763
	c-2.893,0.95-6.074,3.19-8.629,2.621c-9.649-2.15-19.179-4.954-28.595-8.003C113.151,89.414,112.175,89.594,106.869,99.361z
	 M174.694,176.195c6.01-10.146,11.114-19.689,17.211-28.552c2.159-3.138,7.992-7.264,9.964-6.33
	c5.09,2.412,1.867,7.776,0.463,11.649c-3.106,8.568-6.767,16.937-10.211,25.41c11.111,3.118,13.132,1.824,14.413-8.514
	c0.788-6.348,1.391-12.793,3.063-18.925c0.906-3.323,3.876-6.085,5.915-9.1c1.589,3.315,4.169,6.52,4.555,9.97
	c0.733,6.566,0.213,13.271,0.213,20.208c5.363-1.512,6.545-4.219,5.515-9.097c-1.357-6.424-2.063-13.05-2.282-19.615
	c-0.07-2.119,1.845-5.474,3.648-6.154c1.775-0.669,5.234,0.694,6.755,2.301c2.754,2.91,4.617,6.665,6.907,10.148
	c6.523-10.801-2.572-28.013-15.521-29.456c-23.907-2.665-47.833-5.146-71.756-7.652c-14.874-1.558-29.757-3.023-44.961-4.563
	c4.706,11.892,2.625,9.972,13.479,8.951c8.558-0.804,17.181-1.642,25.739-1.364c3.232,0.105,6.364,3.302,9.541,5.09
	c-2.566,2.34-4.849,5.17-7.785,6.873c-2.571,1.49-5.844,1.876-8.863,2.465c-6.589,1.283-13.212,2.385-20.109,3.612
	c7.756,10.118,7.701,10.003,18.088,4.999c7.544-3.634,15.088-7.413,22.975-10.132c3.67-1.266,8.153-0.172,12.269-0.147
	c-2.312,3.354-3.946,7.663-7.066,9.876c-8.057,5.714-16.77,10.502-25.229,15.667c4.542,5.504,4.573,5.553,9.856,2.204
	c3.54-2.244,7.147-4.435,10.421-7.03c6.05-4.795,11.652-10.189,17.932-14.64c1.964-1.393,6.517-1.728,8.044-0.411
	c1.531,1.319,1.869,5.879,0.767,7.999c-2.088,4.015-5.285,7.599-8.555,10.82c-5.572,5.488-11.559,10.557-17.767,16.161
	C166.784,171.542,170.743,173.871,174.694,176.195z M212.602,290.236c-2.311-3.348-4.031-5.644-5.542-8.068
	c-4.196-6.729-8.494-13.408-12.299-20.356c-0.813-1.481,0.292-4.013,0.513-6.06c2.051,0.263,4.325,0.063,6.094,0.915
	c1.905,0.915,3.476,2.688,4.952,4.306c4.223,4.63,8.324,9.371,12.575,14.181c3.073-4.859,2.15-7.81-2.264-10.864
	c-5.205-3.603-9.98-7.994-14.277-12.655c-1.519-1.648-2.338-6.144-1.232-7.477c1.539-1.855,5.263-2.822,7.917-2.595
	c3.475,0.297,6.818,2.13,10.51,3.402c-2.541-13.343-21.728-19.921-31.712-11.4c-19.639,16.76-39.191,33.621-58.779,50.442
	c-6.985,6-13.968,12.002-21.144,18.171c11.267,6.598,11.094,6.463,18.411-2.969c4.035-5.201,8.526-10.118,13.322-14.619
	c1.523-1.431,5.958-2.272,6.831-1.327c1.546,1.675,1.979,4.975,1.77,7.502c-0.208,2.517-1.557,5.037-2.801,7.344
	c-2.561,4.742-5.386,9.343-8.166,14.107c10.722,3.001,12.776,2.661,16.03-6.807c3.478-10.119,5.192-20.834,8.173-31.146
	c0.791-2.733,3.408-4.938,5.187-7.385c2.337,2.155,5.648,3.903,6.764,6.57c1.375,3.286,1.271,7.347,1.187,11.057
	c-0.199,8.736-0.766,17.464-1.213,26.776c5.188-1.143,9.782-2.153,14.188-3.124c-2.232-11.261-4.807-21.55-6.074-31.999
	c-0.485-4,2.013-8.361,3.152-12.56c2.789,3.046,6.61,5.645,8.16,9.227c3.607,8.34,6.12,17.152,9.386,26.679
	C205.833,296.277,209.03,293.425,212.602,290.236z M385.711,223.407c-7.331-7.626-17.66-8.871-25.954-3.422
	c-8.554,5.619-12.308,17.23-8.663,25.818c12.822,30.219,25.528,60.488,38.286,90.735c0.528,1.252,1.132,2.471,2.501,5.445
	c3.408-8.185,6.378-14.541,8.587-21.151c0.563-1.683-0.778-4.597-2.125-6.21c-4.095-4.902-8.882-9.238-12.835-14.242
	c-1.337-1.692-0.991-4.715-1.415-7.129c2.282-0.14,4.857-1.032,6.787-0.274c5.257,2.061,10.237,4.82,15.996,7.629
	c0.504-2.761,0.873-4.794,1.242-6.819c-8.198-3.424-15.993-6.442-23.534-9.996c-1.771-0.836-2.691-3.481-4.004-5.295
	c1.887-1.25,3.638-3.159,5.696-3.588c2.726-0.565,5.692,0,8.553,0.13c4.299,0.194,8.597,0.431,13.42,0.677
	c-0.396-3.246-0.681-5.577-0.962-7.869c-8.99-0.696-17.569-0.983-26.022-2.17c-4.461-0.626-10.041-2.139-9.696-8.064
	c0.342-5.899,6.128-5.462,10.299-6.017c6.413-0.852,12.896-1.199,20.193-1.833c-1.81-4.932-3.226-8.786-4.694-12.786
	c-1.708,0.142-3.022,0.115-4.275,0.379c-4.956,1.049-9.867,2.862-14.844,3.044c-2.982,0.109-6.057-2.277-9.088-3.542
	c1.721-2.693,2.904-6.089,5.292-7.909C377.679,226.487,381.828,225.237,385.711,223.407z M104.458,293.628
	c0.993-0.063,1.542,0.075,1.794-0.139c26.166-22.037,52.536-43.842,78.33-66.307c8.986-7.826,5.123-22.96-5.573-25.667
	c0.246,3.904,1.001,7.889,0.546,11.73c-0.265,2.238-2.218,5.721-3.857,5.996c-2.164,0.363-5.946-1.231-6.954-3.104
	c-2.998-5.57-5.677-11.518-7.156-17.639c-1.416-5.86-4.1-6.899-9.738-5.136c1.514,2.447,2.932,4.386,3.983,6.508
	c2.734,5.513,5.563,11.007,7.774,16.732c0.593,1.533-0.364,4.414-1.621,5.635c-0.769,0.746-3.637-0.137-5.246-0.932
	c-1.728-0.853-3.22-2.33-4.58-3.758c-6.061-6.37-12.038-12.819-18.407-19.625c-1.715,1.885-3.262,3.585-5.09,5.593
	c2.748,2.152,5.126,3.736,7.17,5.672c5.113,4.841,10.276,9.662,14.965,14.897c1.289,1.439,2.059,5.367,1.161,6.283
	c-1.495,1.522-4.684,2.385-6.882,1.988c-3.617-0.653-7.157-2.251-10.468-3.958c-5.638-2.906-11.073-6.206-17.294-9.738
	c-1.999,4.348-3.859,8.392-6.174,13.426c3.769,0.303,6.353,0.293,8.851,0.753c6.897,1.27,13.932,2.221,20.533,4.43
	c2.052,0.687,4.231,5.123,3.988,7.61c-0.405,4.132-3.907,3.757-7.692,3.237c-7.826-1.074-15.791-1.185-23.705-1.551
	c-4.848-0.225-6.541,2.446-5.989,7.286c7.149-0.429,14.143-1.222,21.116-1.074c2.602,0.056,5.158,2.313,7.734,3.565
	c-1.985,2.288-3.549,5.737-6.037,6.641c-6.797,2.465-13.9,4.419-21.044,5.479c-4.858,0.721-5.663,2.859-5.352,6.956
	C103.995,281.352,104.156,287.308,104.458,293.628z M312.736,286.335c0.931,0.142,1.863,0.284,2.795,0.427
	c0.883-1.234,1.736-2.49,2.652-3.699c5.457-7.187,10.548-14.711,16.62-21.338c1.892-2.061,6.454-1.675,9.793-2.41
	c-0.088,2.95,0.717,6.313-0.422,8.778c-4.522,9.798-9.439,19.432-14.638,28.89c-2.99,5.44-2.705,9.214,2.976,11.464
	c4.685-8.644,8.92-17.373,14.136-25.473c1.413-2.194,5.791-2.478,8.811-3.639c0.851,2.95,3.008,6.257,2.314,8.783
	c-2.376,8.677-5.6,17.141-8.787,25.576c-3.398,8.994-2.674,10.682,6.863,13.731c0.422-3.938,0.254-8.064,1.447-11.755
	c1.016-3.146,3.592-5.791,5.479-8.656c2.976,2.244,7.516,3.916,8.592,6.855c2.149,5.87,3.245,12.438,3.214,18.71
	c-0.035,7.46,3.425,10.148,10.691,10.803c-0.801-2.382-1.346-4.427-2.155-6.36c-11.758-28.048-23.947-55.925-35.125-84.2
	c-4.04-10.22-11.186-14.585-20.92-16.632c-13.048-2.742-23.6,8.167-20.6,21.668c1.065-0.988,1.942-1.95,2.964-2.723
	c5.229-3.96,10.287-8.211,15.873-11.589c1.652-1,4.826,0.517,7.303,0.881c-0.558,2.126-0.638,4.552-1.753,6.328
	c-5.515,8.777-11.569,17.223-16.826,26.143C312.548,279.424,313.112,283.156,312.736,286.335z"/>
<path fill-rule="evenodd" clip-rule="evenodd" fill="#FFFFFF" d="M106.869,99.361c5.306-9.767,6.282-9.948,15.887-6.836
	c9.416,3.049,18.946,5.853,28.595,8.003c2.555,0.569,5.736-1.671,8.629-2.621c-1.52-2.656-2.385-6.471-4.674-7.763
	c-8.598-4.851-17.66-8.88-26.342-13.116c9.478-6.14,9.337-5.931,18.489,0.245c8.212,5.541,16.648,10.79,25.29,15.623
	c1.963,1.098,5.181-0.049,7.821-0.163c-0.701-2.551-0.605-5.914-2.238-7.518c-8.309-8.163-17.065-15.87-25.688-23.757
	c3.753-4.452,7.688-3.72,11.467,0.075c7.283,7.313,14.485,14.708,21.673,22.116c0.91,0.937,1.479,2.195,2.313,3.218
	c2.297,2.818,5.275,6.231,8.605,2.995c1.779-1.729,2.181-6.643,1.076-9.2c-2.15-4.977-5.55-9.499-8.895-13.856
	c-3.866-5.039-8.228-9.697-12.914-15.146c4.96-1.486,9.275-2.778,13.937-4.174c2.462,8.607,4.499,16.708,7.145,24.606
	c1.523,4.546,3.747,8.936,6.248,13.035c0.922,1.513,3.883,3.073,5.296,2.632c1.397-0.436,2.961-3.453,2.812-5.196
	c-0.711-8.326-1.914-16.614-3.088-24.894c-0.396-2.795-1.227-5.528-2.043-9.095c3.047,0.478,5.582,0.87,8.114,1.273
	c4.112,0.656,5.848,2.511,5.313,7.172c-1.004,8.751-1.435,17.591-1.57,26.401c-0.033,2.14,2.007,4.312,3.095,6.468
	c2.028-1.651,5.191-2.93,5.88-5.022c2.398-7.286,3.94-14.854,5.945-22.863c4.103,2.52,6.089,4.686,3.296,9.853
	c-3.001,5.551-5.069,11.741-6.595,17.888c-0.591,2.38,0.658,6.756,2.453,7.768c1.875,1.056,5.878-0.144,8.109-1.625
	c2.834-1.882,4.822-5.041,8.795-7.595c-0.388,3.814-0.142,7.837-1.305,11.399c-2.063,6.321-14.973,15.092-23.645,13.997
	c-38.529-4.863-77.147-9.026-115.73-13.465C108.042,100.18,107.694,99.831,106.869,99.361z"/>
<path fill-rule="evenodd" clip-rule="evenodd" fill="#FFFFFF" d="M174.694,176.195c-3.952-2.324-7.911-4.652-12.371-7.275
	c6.208-5.604,12.195-10.672,17.767-16.161c3.27-3.221,6.466-6.805,8.555-10.82c1.102-2.119,0.764-6.68-0.767-7.999
	c-1.528-1.316-6.081-0.981-8.044,0.411c-6.28,4.45-11.882,9.844-17.932,14.64c-3.274,2.595-6.882,4.786-10.421,7.03
	c-5.284,3.349-5.315,3.3-9.856-2.204c8.459-5.165,17.172-9.953,25.229-15.667c3.12-2.213,4.755-6.522,7.066-9.876
	c-4.115-0.024-8.599-1.119-12.269,0.147c-7.887,2.719-15.431,6.498-22.975,10.132c-10.388,5.004-10.332,5.119-18.088-4.999
	c6.896-1.227,13.52-2.329,20.109-3.612c3.019-0.588,6.292-0.975,8.863-2.465c2.936-1.703,5.218-4.533,7.785-6.873
	c-3.177-1.788-6.309-4.985-9.541-5.09c-8.559-0.278-17.181,0.56-25.739,1.364c-10.855,1.021-8.773,2.941-13.479-8.951
	c15.204,1.54,30.087,3.004,44.961,4.563c23.923,2.506,47.85,4.987,71.756,7.652c12.95,1.443,22.044,18.654,15.521,29.456
	c-2.29-3.484-4.153-7.238-6.907-10.148c-1.521-1.607-4.979-2.971-6.755-2.301c-1.803,0.68-3.719,4.035-3.648,6.154
	c0.219,6.564,0.924,13.191,2.282,19.615c1.03,4.877-0.152,7.584-5.515,9.097c0-6.937,0.521-13.643-0.213-20.208
	c-0.385-3.45-2.966-6.655-4.555-9.97c-2.039,3.015-5.009,5.776-5.915,9.1c-1.671,6.132-2.275,12.578-3.063,18.925
	c-1.281,10.337-3.302,11.631-14.413,8.514c3.444-8.473,7.105-16.841,10.211-25.41c1.404-3.874,4.627-9.237-0.463-11.649
	c-1.972-0.935-7.805,3.192-9.964,6.33C185.809,156.505,180.704,166.049,174.694,176.195z"/>
<path fill-rule="evenodd" clip-rule="evenodd" fill="#FFFFFF" d="M212.602,290.236c-3.572,3.188-6.769,6.041-10.383,9.267
	c-3.266-9.526-5.779-18.339-9.386-26.679c-1.549-3.582-5.371-6.181-8.16-9.227c-1.139,4.198-3.637,8.56-3.152,12.56
	c1.268,10.449,3.842,20.738,6.074,31.999c-4.407,0.971-9.001,1.981-14.188,3.124c0.447-9.313,1.014-18.04,1.213-26.776
	c0.084-3.71,0.188-7.771-1.187-11.057c-1.115-2.667-4.426-4.415-6.764-6.57c-1.779,2.447-4.396,4.651-5.187,7.385
	c-2.981,10.313-4.695,21.027-8.173,31.146c-3.253,9.468-5.308,9.808-16.03,6.807c2.779-4.765,5.604-9.365,8.166-14.107
	c1.244-2.307,2.592-4.827,2.801-7.344c0.209-2.527-0.224-5.827-1.77-7.502c-0.873-0.945-5.307-0.104-6.831,1.327
	c-4.796,4.501-9.287,9.418-13.322,14.619c-7.317,9.432-7.145,9.566-18.411,2.969c7.176-6.169,14.159-12.171,21.144-18.171
	c19.587-16.821,39.14-33.682,58.779-50.442c9.985-8.521,29.172-1.943,31.712,11.4c-3.692-1.272-7.035-3.105-10.51-3.402
	c-2.654-0.227-6.378,0.74-7.917,2.595c-1.106,1.333-0.287,5.828,1.232,7.477c4.297,4.662,9.072,9.053,14.277,12.655
	c4.414,3.055,5.336,6.005,2.264,10.864c-4.25-4.81-8.352-9.551-12.575-14.181c-1.476-1.617-3.046-3.391-4.952-4.306
	c-1.769-0.851-4.042-0.652-6.094-0.915c-0.221,2.047-1.325,4.579-0.513,6.06c3.805,6.948,8.103,13.628,12.299,20.356
	C208.571,284.593,210.292,286.889,212.602,290.236z"/>
<path fill-rule="evenodd" clip-rule="evenodd" fill="#FFFFFF" d="M385.711,223.407c-3.883,1.83-8.032,3.08-11.26,5.54
	c-2.388,1.82-3.571,5.215-5.292,7.909c3.031,1.265,6.105,3.651,9.088,3.542c4.977-0.183,9.888-1.996,14.844-3.044
	c1.253-0.265,2.567-0.237,4.275-0.379c1.469,4,2.885,7.854,4.694,12.786c-7.298,0.635-13.78,0.982-20.193,1.833
	c-4.171,0.554-9.957,0.118-10.299,6.017c-0.345,5.926,5.235,7.438,9.696,8.064c8.453,1.187,17.032,1.474,26.022,2.17
	c0.281,2.292,0.565,4.623,0.962,7.869c-4.823-0.246-9.121-0.482-13.42-0.677c-2.86-0.13-5.827-0.695-8.553-0.13
	c-2.059,0.429-3.81,2.338-5.696,3.588c1.313,1.813,2.232,4.459,4.004,5.295c7.541,3.554,15.336,6.572,23.534,9.996
	c-0.369,2.025-0.738,4.059-1.242,6.819c-5.759-2.809-10.739-5.568-15.996-7.629c-1.93-0.758-4.505,0.135-6.787,0.274
	c0.424,2.414,0.078,5.437,1.415,7.129c3.953,5.004,8.74,9.34,12.835,14.242c1.347,1.613,2.688,4.527,2.125,6.21
	c-2.209,6.61-5.179,12.967-8.587,21.151c-1.369-2.975-1.973-4.193-2.501-5.445c-12.758-30.247-25.464-60.517-38.286-90.735
	c-3.645-8.587,0.109-20.199,8.663-25.818C368.051,214.536,378.38,215.781,385.711,223.407z"/>
<path fill-rule="evenodd" clip-rule="evenodd" fill="#FFFFFF" d="M104.458,293.628c-0.302-6.32-0.463-12.276-0.914-18.21
	c-0.311-4.097,0.494-6.235,5.352-6.956c7.145-1.06,14.248-3.014,21.044-5.479c2.488-0.903,4.052-4.353,6.037-6.641
	c-2.577-1.253-5.132-3.51-7.734-3.565c-6.974-0.148-13.967,0.645-21.116,1.074c-0.552-4.84,1.141-7.511,5.989-7.286
	c7.914,0.366,15.879,0.477,23.705,1.551c3.786,0.52,7.288,0.895,7.692-3.237c0.244-2.487-1.936-6.923-3.988-7.61
	c-6.601-2.208-13.635-3.16-20.533-4.43c-2.498-0.46-5.082-0.45-8.851-0.753c2.315-5.034,4.175-9.078,6.174-13.426
	c6.221,3.532,11.656,6.832,17.294,9.738c3.311,1.708,6.851,3.306,10.468,3.958c2.198,0.397,5.387-0.466,6.882-1.988
	c0.898-0.916,0.128-4.844-1.161-6.283c-4.689-5.235-9.853-10.056-14.965-14.897c-2.044-1.936-4.423-3.52-7.17-5.672
	c1.828-2.008,3.375-3.708,5.09-5.593c6.369,6.806,12.346,13.255,18.407,19.625c1.36,1.429,2.852,2.905,4.58,3.758
	c1.608,0.795,4.477,1.678,5.246,0.932c1.257-1.222,2.214-4.102,1.621-5.635c-2.211-5.725-5.04-11.219-7.774-16.732
	c-1.052-2.122-2.469-4.061-3.983-6.508c5.639-1.763,8.322-0.724,9.738,5.136c1.479,6.121,4.159,12.069,7.156,17.639
	c1.008,1.873,4.791,3.467,6.954,3.104c1.639-0.275,3.593-3.757,3.857-5.996c0.455-3.842-0.3-7.827-0.546-11.73
	c10.696,2.707,14.56,17.84,5.573,25.667c-25.794,22.464-52.164,44.27-78.33,66.307C106,293.703,105.451,293.564,104.458,293.628z"/>
<path fill-rule="evenodd" clip-rule="evenodd" fill="#FFFFFF" d="M312.736,286.335c0.376-3.179-0.188-6.911,1.297-9.436
	c5.257-8.92,11.312-17.366,16.826-26.143c1.115-1.776,1.195-4.202,1.753-6.328c-2.477-0.364-5.65-1.88-7.303-0.881
	c-5.586,3.377-10.645,7.629-15.873,11.589c-1.021,0.773-1.898,1.735-2.964,2.723c-3-13.501,7.552-24.411,20.6-21.668
	c9.734,2.046,16.88,6.412,20.92,16.632c11.178,28.275,23.367,56.152,35.125,84.2c0.81,1.934,1.354,3.979,2.155,6.36
	c-7.267-0.654-10.727-3.343-10.691-10.803c0.031-6.271-1.064-12.84-3.214-18.71c-1.076-2.939-5.616-4.611-8.592-6.855
	c-1.887,2.865-4.463,5.51-5.479,8.656c-1.193,3.69-1.025,7.817-1.439,11.755c-9.545-3.05-10.27-4.737-6.871-13.731
	c3.188-8.436,6.411-16.899,8.787-25.576c0.693-2.526-1.464-5.833-2.314-8.783c-3.02,1.161-7.397,1.444-8.811,3.639
	c-5.216,8.1-9.451,16.829-14.136,25.473c-5.681-2.25-5.966-6.023-2.976-11.464c5.198-9.458,10.115-19.092,14.638-28.89
	c1.139-2.465,0.334-5.828,0.422-8.778c-3.339,0.735-7.901,0.35-9.793,2.41c-6.072,6.627-11.163,14.151-16.62,21.338
	c-0.916,1.209-1.77,2.465-2.652,3.699C314.6,286.619,313.667,286.477,312.736,286.335z"/>
</svg>
